<svg width="233" height="233" viewBox="0 0 233 233" fill="none" xmlns="http://www.w3.org/2000/svg">
<path d="M29.125 29.125H58.25V58.25H29.125V29.125Z" fill="black"/>
<path d="M87.375 0V87.375H0V0H87.375ZM72.8125 14.5625H14.5625V72.8125H72.8125V14.5625ZM58.25 174.75H29.125V203.875H58.25V174.75Z" fill="black"/>
<path d="M87.375 145.625V233H0V145.625H87.375ZM14.5625 160.188V218.438H72.8125V160.188H14.5625ZM174.75 29.125H203.875V58.25H174.75V29.125Z" fill="black"/>
<path d="M145.625 0V87.375H233V0H145.625ZM218.438 14.5625V72.8125H160.188V14.5625H218.438ZM116.5 14.5625V0H131.062V29.125H116.5V58.25H101.938V14.5625H116.5ZM116.5 87.375V58.25H131.062V87.375H116.5ZM87.375 116.5V101.938H101.938V87.375H116.5V116.5H131.062V101.938H203.875V116.5H145.625V131.062H101.938V116.5H87.375ZM87.375 116.5V131.062H29.125V116.5H14.5625V131.062H0V101.938H43.6875V116.5H87.375ZM233 131.062H218.438V101.938H233V131.062ZM218.438 131.062H203.875V160.188H233V145.625H218.438V131.062ZM160.188 131.062H189.312V145.625H174.75V160.188H160.188V131.062ZM189.312 174.75V160.188H174.75V174.75H160.188V189.312H131.062V203.875H174.75V174.75H189.312ZM189.312 174.75H233V189.312H203.875V203.875H189.312V174.75ZM131.062 160.188V174.75H145.625V145.625H101.938V160.188H131.062Z" fill="black"/>
<path d="M101.938 174.75H116.5V218.438H174.75V233H101.938V174.75ZM233 203.875V233H189.312V218.438H218.438V203.875H233Z" fill="black"/>
</svg>
