<svg width="306" height="188" viewBox="0 0 306 188" fill="none" xmlns="http://www.w3.org/2000/svg">
<g opacity="0.75">
<circle cx="201.5" cy="124.5" r="24.5" fill="white"/>
<path d="M126.188 163.625C126.186 164.271 125.928 164.89 125.472 165.347C125.015 165.803 124.396 166.061 123.75 166.062H96.9375C96.291 166.062 95.671 165.806 95.2139 165.349C94.7568 164.891 94.5 164.271 94.5 163.625C94.5 162.979 94.7568 162.359 95.2139 161.901C95.671 161.444 96.291 161.188 96.9375 161.188H123.75C124.396 161.189 125.015 161.447 125.472 161.903C125.928 162.36 126.186 162.979 126.188 163.625ZM123.75 151.438H96.9375C96.291 151.438 95.671 151.694 95.2139 152.151C94.7568 152.609 94.5 153.229 94.5 153.875C94.5 154.521 94.7568 155.141 95.2139 155.599C95.671 156.056 96.291 156.312 96.9375 156.312H123.75C124.396 156.312 125.016 156.056 125.474 155.599C125.931 155.141 126.188 154.521 126.188 153.875C126.188 153.229 125.931 152.609 125.474 152.151C125.016 151.694 124.396 151.438 123.75 151.438ZM123.75 141.688H96.9375C96.291 141.688 95.671 141.944 95.2139 142.401C94.7568 142.859 94.5 143.479 94.5 144.125C94.5 144.771 94.7568 145.391 95.2139 145.849C95.671 146.306 96.291 146.562 96.9375 146.562H123.75C124.396 146.562 125.016 146.306 125.474 145.849C125.931 145.391 126.188 144.771 126.188 144.125C126.188 143.479 125.931 142.859 125.474 142.401C125.016 141.944 124.396 141.688 123.75 141.688ZM226.125 124.625C226.126 128.399 225.245 132.121 223.552 135.494C221.859 138.867 219.401 141.797 216.375 144.052V180.688C216.373 181.333 216.116 181.952 215.659 182.409C215.202 182.866 214.583 183.123 213.938 183.125H82.3125C81.6666 183.123 81.0477 182.866 80.591 182.409C80.1343 181.952 79.8769 181.333 79.875 180.688V73.4375H79.8994C79.8863 73.1301 79.9361 72.8232 80.0456 72.5356L93.7444 38.4106C93.925 37.9571 94.2376 37.5682 94.6418 37.2944C95.046 37.0207 95.5231 36.8745 96.0112 36.875H200.239C200.727 36.8745 201.204 37.0207 201.608 37.2944C202.012 37.5682 202.325 37.9571 202.506 38.4106L216.204 72.5356C216.314 72.8232 216.364 73.1301 216.351 73.4375H216.375V105.198C219.401 107.453 221.859 110.383 223.552 113.756C225.245 117.129 226.126 120.851 226.125 124.625ZM138.497 95.375H157.753L154.95 41.75H141.3L138.497 95.375ZM211.5 146.928C207.79 148.564 203.73 149.249 199.688 148.92C195.646 148.591 191.75 147.258 188.354 145.044C184.957 142.829 182.166 139.802 180.234 136.237C178.302 132.671 177.291 128.68 177.291 124.625C177.291 120.57 178.302 116.579 180.234 113.013C182.166 109.448 184.957 106.421 188.354 104.206C191.75 101.992 195.646 100.659 199.688 100.33C203.73 100.001 207.79 100.686 211.5 102.322V75.875H161.604L162.75 97.6906C162.771 98.3541 162.535 99.0001 162.092 99.4944C161.861 99.7334 161.585 99.9236 161.279 100.053C160.973 100.183 160.645 100.25 160.312 100.25H135.938C135.605 100.25 135.277 100.183 134.971 100.053C134.665 99.9236 134.389 99.7334 134.158 99.4944C133.715 99.0001 133.479 98.3541 133.5 97.6906L134.646 75.875H84.75V178.25H211.5V146.928ZM214.279 115.436C213.779 115.026 213.138 114.83 212.495 114.889C211.852 114.949 211.258 115.259 210.842 115.753L200.141 128.598L192.244 122.675C191.988 122.483 191.696 122.343 191.386 122.264C191.076 122.184 190.753 122.167 190.437 122.212C190.12 122.257 189.815 122.365 189.539 122.528C189.264 122.691 189.023 122.906 188.831 123.163C188.639 123.419 188.499 123.71 188.42 124.02C188.341 124.33 188.323 124.653 188.368 124.97C188.414 125.287 188.521 125.591 188.684 125.867C188.847 126.142 189.063 126.383 189.319 126.575L199.069 133.887C199.493 134.2 200.005 134.37 200.531 134.375C200.89 134.377 201.244 134.3 201.569 134.148C201.893 133.996 202.18 133.774 202.408 133.497L214.596 118.872C215.004 118.373 215.2 117.732 215.141 117.089C215.082 116.446 214.772 115.852 214.279 115.436Z" fill="#240D42"/>
<rect x="176" y="98" width="51" height="51" fill="white"/>
<path d="M201.499 98C187.417 98 176 109.416 176 123.5C176 137.584 187.417 149 201.499 149C215.583 149 227 137.584 227 123.5C227 109.416 215.583 98 201.499 98ZM217.259 117.898L199.99 135.167C199.377 135.78 198.548 136.125 197.679 136.125C196.809 136.125 195.98 135.78 195.366 135.167L185.736 125.535C184.459 124.258 184.459 122.188 185.736 120.91C187.015 119.633 189.085 119.633 190.361 120.912L197.677 128.231L212.634 113.273C213.911 111.996 215.98 111.996 217.255 113.273C218.538 114.548 218.538 116.621 217.259 117.898Z" fill="#FECC09"/>
</g>
<path d="M23.9343 116.104L18.5963 115.511C18.0838 115.458 17.6711 115.039 17.6246 114.52L17.0122 107.711C16.9989 107.524 16.8392 107.385 16.6528 107.385C16.4664 107.385 16.3067 107.524 16.2934 107.711L15.6811 114.526C15.6345 115.039 15.2285 115.458 14.7093 115.511L9.37137 116.104C9.19166 116.124 9.05189 116.277 9.05189 116.463C9.05189 116.65 9.19166 116.803 9.37137 116.823L14.7093 117.415C15.2218 117.468 15.6345 117.888 15.6811 118.4L16.2934 125.209C16.3067 125.395 16.4664 125.535 16.6528 125.535C16.8392 125.535 16.9989 125.395 17.0122 125.209L17.6246 118.393C17.6711 117.881 18.0772 117.462 18.5963 117.408L23.9343 116.816C24.114 116.796 24.2537 116.643 24.2537 116.457C24.2537 116.27 24.114 116.117 23.9343 116.097V116.104ZM18.5164 116.696C17.6645 116.789 16.9856 117.482 16.9057 118.34L16.6528 121.162L16.3999 118.34C16.32 117.482 15.6478 116.789 14.7892 116.696L12.6993 116.463L14.7892 116.23C15.6411 116.137 16.32 115.445 16.3999 114.586L16.6528 111.764L16.9057 114.586C16.9856 115.445 17.6578 116.137 18.5164 116.23L20.6064 116.463L18.5164 116.696ZM258.864 30.4237L252.355 29.7048C251.662 29.6316 251.11 29.0659 251.05 28.3737L250.305 20.0672C250.291 19.9142 250.158 19.7943 250.005 19.7943C249.852 19.7943 249.719 19.9142 249.706 20.0672L248.96 28.3737C248.9 29.0659 248.348 29.625 247.656 29.7048L241.146 30.4237C240.993 30.4436 240.88 30.5701 240.88 30.7232C240.88 30.8763 240.993 31.0027 241.146 31.0227L247.656 31.7415C248.348 31.8214 248.9 32.3805 248.96 33.0727L249.706 41.3791C249.719 41.5322 249.852 41.652 250.005 41.652C250.158 41.652 250.291 41.5322 250.305 41.3791L251.05 33.0727C251.11 32.3805 251.662 31.8214 252.355 31.7415L258.864 31.0227C259.017 31.0027 259.13 30.8763 259.13 30.7232C259.13 30.5701 259.017 30.4436 258.864 30.4237ZM252.288 31.1425C251.31 31.249 250.538 32.041 250.451 33.0128L250.005 38.0046L249.553 33.0128C249.466 32.0344 248.694 31.249 247.716 31.1425L243.902 30.7232L247.716 30.3039C248.694 30.1974 249.466 29.4053 249.553 28.4269L250.005 23.4351L250.451 28.4269C250.538 29.4053 251.31 30.1907 252.288 30.3039L256.102 30.7232L252.288 31.1425ZM12.3332 52.0018L15.7343 52.3811C16.0604 52.4144 16.32 52.6807 16.3533 53.0134L16.746 57.3597C16.7593 57.4795 16.8591 57.5727 16.9723 57.5727C17.0854 57.5727 17.1919 57.4795 17.1986 57.3597L17.5913 53.0134C17.6179 52.6873 17.8775 52.4211 18.2103 52.3811L21.618 52.0018C21.7378 51.9884 21.8244 51.8886 21.8244 51.7755C21.8244 51.6623 21.7378 51.5625 21.618 51.5492L18.2103 51.1698C17.8841 51.1365 17.6246 50.8703 17.5913 50.5375L17.1986 46.1912C17.1853 46.0714 17.0854 45.9783 16.9723 45.9783C16.8591 45.9783 16.7526 46.0714 16.746 46.1912L16.3533 50.5375C16.32 50.8636 16.0671 51.1298 15.7343 51.1698L12.3332 51.5492C12.2134 51.5625 12.1269 51.6623 12.1269 51.7755C12.1269 51.8886 12.2134 51.9884 12.3332 52.0018ZM15.7876 51.6224C16.3333 51.5625 16.766 51.1232 16.8125 50.5774L16.9723 48.7804L17.132 50.5774C17.1786 51.1232 17.6112 51.5625 18.157 51.6224L19.4882 51.7688L18.157 51.9152C17.6112 51.9751 17.1786 52.4144 17.132 52.9602L16.9723 54.7573L16.8125 52.9602C16.766 52.4144 16.3333 51.9751 15.7876 51.9152L14.4564 51.7688L15.7876 51.6224ZM99.837 8.35968L103.238 8.73906C103.564 8.77234 103.824 9.03858 103.857 9.37137L104.25 13.7176C104.263 13.8374 104.363 13.9306 104.476 13.9306C104.589 13.9306 104.696 13.8374 104.702 13.7176L105.095 9.37137C105.122 9.04523 105.381 8.779 105.714 8.73906L109.122 8.35968C109.242 8.34637 109.328 8.24654 109.328 8.13339C109.328 8.02024 109.242 7.9204 109.122 7.90709L105.714 7.52771C105.388 7.49443 105.128 7.2282 105.095 6.89541L104.702 2.54917C104.689 2.42937 104.589 2.33618 104.476 2.33618C104.363 2.33618 104.256 2.42937 104.25 2.54917L103.857 6.89541C103.824 7.22154 103.571 7.48777 103.238 7.52771L99.837 7.90709C99.7172 7.9204 99.6307 8.02024 99.6307 8.13339C99.6307 8.24654 99.7172 8.34637 99.837 8.35968ZM103.291 7.9803C103.837 7.9204 104.27 7.48112 104.316 6.93534L104.476 5.13828L104.636 6.93534C104.682 7.48112 105.115 7.9204 105.661 7.9803L106.992 8.12673L105.661 8.27316C105.115 8.33306 104.682 8.77234 104.636 9.31812L104.476 11.1152L104.316 9.31812C104.27 8.77234 103.837 8.33306 103.291 8.27316L101.96 8.12673L103.291 7.9803ZM30.2905 62.3648L33.6917 62.7442C34.0178 62.7775 34.2774 63.0437 34.3106 63.3765L34.7033 67.7228C34.7166 67.8426 34.8165 67.9357 34.9296 67.9357C35.0428 67.9357 35.1493 67.8426 35.1559 67.7228L35.5486 63.3765C35.5752 63.0504 35.8348 62.7842 36.1676 62.7442L39.5754 62.3648C39.6952 62.3515 39.7817 62.2517 39.7817 62.1385C39.7817 62.0254 39.6952 61.9256 39.5754 61.9122L36.1676 61.5329C35.8415 61.4996 35.5819 61.2334 35.5486 60.9006L35.1559 56.5543C35.1426 56.4345 35.0428 56.3413 34.9296 56.3413C34.8165 56.3413 34.71 56.4345 34.7033 56.5543L34.3106 60.9006C34.2774 61.2267 34.0244 61.4929 33.6917 61.5329L30.2905 61.9122C30.1707 61.9256 30.0842 62.0254 30.0842 62.1385C30.0842 62.2517 30.1707 62.3515 30.2905 62.3648ZM33.7449 61.9855C34.2907 61.9256 34.7233 61.4863 34.7699 60.9405L34.9296 59.1434L35.0894 60.9405C35.136 61.4863 35.5686 61.9256 36.1144 61.9855L37.4455 62.1319L36.1144 62.2783C35.5686 62.3382 35.136 62.7775 35.0894 63.3233L34.9296 65.1203L34.7699 63.3233C34.7233 62.7775 34.2907 62.3382 33.7449 62.2783L32.4137 62.1319L33.7449 61.9855ZM277.647 60.235L281.048 60.6144C281.374 60.6476 281.633 60.9139 281.667 61.2467L282.059 65.5929C282.073 65.7127 282.173 65.8059 282.286 65.8059C282.399 65.8059 282.505 65.7127 282.512 65.5929L282.905 61.2467C282.931 60.9205 283.191 60.6543 283.524 60.6144L286.932 60.235C287.051 60.2217 287.138 60.1218 287.138 60.0087C287.138 59.8955 287.051 59.7957 286.932 59.7824L283.524 59.403C283.198 59.3697 282.938 59.1035 282.905 58.7707L282.512 54.4245C282.499 54.3047 282.399 54.2115 282.286 54.2115C282.173 54.2115 282.066 54.3047 282.059 54.4245L281.667 58.7707C281.633 59.0968 281.381 59.3631 281.048 59.403L277.647 59.7824C277.527 59.7957 277.44 59.8955 277.44 60.0087C277.44 60.1218 277.527 60.2217 277.647 60.235ZM281.101 59.8556C281.647 59.7957 282.079 59.3564 282.126 58.8106L282.286 57.0136L282.445 58.8106C282.492 59.3564 282.925 59.7957 283.47 59.8556L284.802 60.002L283.47 60.1485C282.925 60.2084 282.492 60.6476 282.445 61.1934L282.286 62.9905L282.126 61.1934C282.079 60.6476 281.647 60.2084 281.101 60.1485L279.77 60.002L281.101 59.8556ZM231.748 14.1436L234.431 14.4431C234.69 14.4697 234.896 14.6827 234.916 14.9423L235.223 18.3633C235.229 18.4565 235.309 18.5297 235.402 18.5297C235.495 18.5297 235.575 18.4565 235.582 18.3633L235.888 14.9423C235.908 14.6827 236.114 14.4764 236.374 14.4431L239.056 14.1436C239.15 14.1303 239.216 14.057 239.216 13.9639C239.216 13.8707 239.15 13.7908 239.056 13.7842L236.374 13.4847C236.114 13.458 235.908 13.245 235.888 12.9855L235.582 9.56438C235.575 9.4712 235.495 9.39799 235.402 9.39799C235.309 9.39799 235.229 9.4712 235.223 9.56438L234.916 12.9855C234.896 13.245 234.69 13.4514 234.431 13.4847L231.748 13.7842C231.655 13.7975 231.589 13.8707 231.589 13.9639C231.589 14.057 231.655 14.1369 231.748 14.1436ZM234.47 13.8441C234.896 13.7975 235.243 13.4514 235.276 13.0187L235.402 11.6011L235.529 13.0187C235.569 13.4514 235.908 13.7975 236.334 13.8441L237.386 13.9572L236.334 14.077C235.901 14.1236 235.562 14.4697 235.529 14.9023L235.402 16.32L235.276 14.9023C235.236 14.4697 234.896 14.1236 234.47 14.077L233.419 13.9572L234.47 13.8441ZM271.69 5.5709L274.838 5.91701C275.144 5.95028 275.384 6.19655 275.41 6.50272L275.77 10.5228C275.776 10.636 275.87 10.7158 275.983 10.7158C276.096 10.7158 276.182 10.6293 276.196 10.5228L276.555 6.50272C276.582 6.19655 276.821 5.95694 277.128 5.91701L280.276 5.5709C280.382 5.55759 280.469 5.46441 280.469 5.35792C280.469 5.25143 280.389 5.15824 280.276 5.14493L277.128 4.79883C276.821 4.76555 276.582 4.51929 276.555 4.21312L276.196 0.193018C276.182 0.0798696 276.096 0 275.983 0C275.87 0 275.783 0.0865254 275.77 0.193018L275.41 4.21312C275.384 4.51929 275.144 4.76555 274.838 4.79883L271.69 5.14493C271.583 5.15824 271.497 5.25143 271.497 5.35792C271.497 5.46441 271.577 5.55759 271.69 5.5709ZM274.884 5.2248C275.39 5.17156 275.79 4.7589 275.836 4.25971L275.989 2.59576L276.142 4.25971C276.189 4.76555 276.588 5.17156 277.094 5.2248L278.326 5.35792L277.094 5.49769C276.588 5.55094 276.189 5.9636 276.142 6.46278L275.989 8.12673L275.836 6.46278C275.79 5.95694 275.39 5.55094 274.884 5.49769L273.653 5.35792L274.884 5.2248ZM305.108 132.138L302.406 131.838C302.147 131.811 301.94 131.598 301.914 131.339L301.601 127.891C301.594 127.798 301.514 127.725 301.421 127.725C301.328 127.725 301.248 127.798 301.241 127.891L300.929 131.339C300.902 131.598 300.696 131.811 300.436 131.838L297.734 132.138C297.641 132.151 297.574 132.224 297.574 132.317C297.574 132.41 297.641 132.49 297.734 132.497L300.436 132.796C300.696 132.823 300.902 133.036 300.929 133.296L301.241 136.743C301.248 136.837 301.328 136.91 301.421 136.91C301.514 136.91 301.594 136.837 301.601 136.743L301.914 133.296C301.94 133.036 302.147 132.823 302.406 132.796L305.108 132.497C305.202 132.484 305.268 132.41 305.268 132.317C305.268 132.224 305.202 132.144 305.108 132.138ZM302.366 132.437C301.934 132.484 301.594 132.836 301.554 133.269L301.428 134.693L301.301 133.269C301.261 132.836 300.922 132.484 300.489 132.437L299.431 132.317L300.489 132.197C300.922 132.151 301.268 131.798 301.301 131.366L301.428 129.941L301.554 131.366C301.594 131.798 301.934 132.151 302.366 132.197L303.425 132.317L302.366 132.437ZM9.49117 141.755L6.0834 141.376C5.75727 141.343 5.49769 141.076 5.46441 140.744L5.07172 136.397C5.05841 136.277 4.95857 136.184 4.84542 136.184C4.73227 136.184 4.62578 136.277 4.61912 136.397L4.22643 140.744C4.19315 141.07 3.94023 141.336 3.60744 141.376L0.20633 141.755C0.0865254 141.769 0 141.868 0 141.982C0 142.095 0.0865254 142.194 0.20633 142.208L3.60744 142.587C3.93358 142.62 4.19315 142.887 4.22643 143.219L4.61912 147.566C4.63244 147.686 4.72562 147.779 4.84542 147.779C4.96523 147.779 5.06506 147.686 5.07172 147.566L5.46441 143.219C5.49103 142.893 5.75061 142.627 6.0834 142.587L9.49117 142.208C9.61097 142.194 9.6975 142.095 9.6975 141.982C9.6975 141.868 9.61097 141.769 9.49117 141.755ZM6.03681 142.135C5.49103 142.194 5.05841 142.634 5.01182 143.18L4.85208 144.977L4.69234 143.18C4.64575 142.634 4.21312 142.194 3.66735 142.135L2.33619 141.988L3.66735 141.842C4.21312 141.782 4.64575 141.343 4.69234 140.797L4.85208 139L5.01182 140.797C5.05841 141.343 5.49103 141.782 6.03681 141.842L7.36797 141.988L6.03681 142.135ZM296.549 111.218L292.336 110.752C291.93 110.706 291.611 110.38 291.571 109.974L291.085 104.603C291.071 104.456 290.945 104.343 290.799 104.343C290.652 104.343 290.526 104.456 290.512 104.603L290.026 109.974C289.993 110.38 289.667 110.706 289.261 110.752L285.048 111.218C284.901 111.232 284.795 111.358 284.795 111.505C284.795 111.651 284.901 111.771 285.048 111.791L289.261 112.257C289.667 112.303 289.987 112.629 290.026 113.035L290.512 118.407C290.526 118.553 290.652 118.666 290.799 118.666C290.945 118.666 291.071 118.553 291.085 118.407L291.571 113.035C291.604 112.629 291.93 112.303 292.336 112.257L296.549 111.791C296.696 111.777 296.802 111.651 296.802 111.505C296.802 111.358 296.696 111.238 296.549 111.218ZM292.276 111.684C291.604 111.758 291.071 112.303 291.005 112.976L290.805 115.199L290.605 112.976C290.546 112.303 290.013 111.758 289.341 111.684L287.69 111.505L289.341 111.325C290.013 111.252 290.546 110.706 290.605 110.034L290.805 107.811L291.005 110.034C291.065 110.706 291.597 111.252 292.276 111.325L293.927 111.505L292.276 111.684ZM38.5038 10.2766L35.096 9.89717C34.7699 9.86389 34.5103 9.59766 34.477 9.26487L34.0843 4.91864C34.071 4.79883 33.9712 4.70565 33.8581 4.70565C33.7449 4.70565 33.6384 4.79883 33.6318 4.91864L33.2391 9.26487C33.2058 9.59101 32.9529 9.85724 32.6201 9.89717L29.219 10.2766C29.0992 10.2899 29.0126 10.3897 29.0126 10.5029C29.0126 10.616 29.0992 10.7158 29.219 10.7291L32.6201 11.1085C32.9462 11.1418 33.2058 11.408 33.2391 11.7408L33.6318 16.0871C33.6451 16.2069 33.7382 16.2934 33.8581 16.2934C33.9779 16.2934 34.0777 16.2002 34.0843 16.0871L34.477 11.7408C34.5037 11.4147 34.7632 11.1485 35.096 11.1085L38.5038 10.7291C38.6236 10.7158 38.7101 10.616 38.7101 10.5029C38.7101 10.3897 38.6236 10.2899 38.5038 10.2766ZM35.0494 10.6559C34.5037 10.7158 34.071 11.1551 34.0244 11.7009L33.8647 13.498L33.705 11.7009C33.6584 11.1551 33.2257 10.7158 32.68 10.6559L31.3488 10.5095L32.68 10.3631C33.2257 10.3032 33.6584 9.86389 33.705 9.31812L33.8647 7.52105L34.0244 9.31812C34.071 9.86389 34.5037 10.3032 35.0494 10.3631L36.3806 10.5095L35.0494 10.6559ZM272.921 75.8894L265.952 75.1173C265.214 75.0375 264.621 74.4385 264.555 73.693L263.756 64.8009C263.743 64.6345 263.603 64.508 263.437 64.508C263.27 64.508 263.13 64.6345 263.117 64.8009L262.318 73.693C262.252 74.4385 261.666 75.0375 260.921 75.1173L253.952 75.8894C253.792 75.9094 253.666 76.0425 253.666 76.2089C253.666 76.3753 253.786 76.5084 253.952 76.5284L260.921 77.3005C261.659 77.3803 262.252 77.9793 262.318 78.7248L263.117 87.6169C263.13 87.7833 263.27 87.9098 263.437 87.9098C263.603 87.9098 263.743 87.7833 263.756 87.6169L264.555 78.7248C264.621 77.9793 265.207 77.3803 265.952 77.3005L272.921 76.5284C273.081 76.5084 273.207 76.3753 273.207 76.2089C273.207 76.0425 273.087 75.9094 272.921 75.8894ZM265.879 76.6615C264.834 76.7746 264.009 77.6199 263.916 78.6649L263.437 84.0095L262.957 78.6649C262.864 77.6199 262.039 76.7746 260.994 76.6615L256.914 76.2089L260.994 75.7563C262.039 75.6432 262.864 74.7979 262.957 73.7529L263.437 68.4083L263.916 73.7529C264.009 74.7979 264.834 75.6432 265.879 75.7563L269.959 76.2089L265.879 76.6615ZM92.9882 22.7362L86.0528 21.9708C85.3872 21.8976 84.8548 21.3585 84.7949 20.6862L83.9962 11.8407C83.9762 11.6011 83.7699 11.4147 83.5303 11.4147C83.2907 11.4147 83.0843 11.6011 83.0644 11.8407L82.2657 20.6862C82.2058 21.3518 81.6733 21.8976 81.0077 21.9708L74.0724 22.7362C73.8328 22.7628 73.6531 22.9625 73.6531 23.2021C73.6531 23.4417 73.8328 23.6414 74.0724 23.668L81.0077 24.4334C81.6733 24.5067 82.2058 25.0458 82.2657 25.718L83.0644 34.5636C83.0843 34.8098 83.2907 34.9895 83.5303 34.9895C83.7699 34.9895 83.9762 34.8032 83.9962 34.5636L84.7949 25.718C84.8548 25.0524 85.3872 24.5067 86.0528 24.4334L92.9882 23.668C93.2278 23.6414 93.4075 23.4417 93.4075 23.2021C93.4075 22.9625 93.2278 22.7628 92.9882 22.7362ZM85.953 23.5016C84.8415 23.6214 83.9629 24.52 83.8631 25.6315L83.5303 29.2988L83.1975 25.6381C83.0976 24.5266 82.2191 23.6281 81.1076 23.5083L78.392 23.2088L81.1076 22.9093C82.2191 22.7895 83.0976 21.8909 83.1975 20.7794L83.5303 17.1121L83.8631 20.7727C83.9629 21.8909 84.8415 22.7828 85.953 22.9026L88.6686 23.2021L85.953 23.5016Z" fill="#260D46"/>
</svg>
