<svg width="306" height="157" viewBox="0 0 306 157" fill="none" xmlns="http://www.w3.org/2000/svg">
<g opacity="0.75" clip-path="url(#clip0_193_502)">
<path d="M168.225 99.313V132.322C168.225 133.229 168.326 134.136 168.525 135.018C169.127 137.69 170.64 140.118 172.785 141.853C173.856 142.719 175.053 143.395 176.343 143.861C177.679 144.343 179.082 144.588 180.511 144.588H192.894V145.785C192.894 147.4 191.578 148.713 189.962 148.713H117.102C115.485 148.713 114.17 147.4 114.17 145.785V47.2148C114.17 45.6001 115.485 44.2874 117.102 44.2874H169.485V55.4595C169.485 62.1849 174.966 67.6565 181.703 67.6565H192.894V87.0476H180.511C178.428 87.0476 176.367 87.5807 174.552 88.5893C172.797 89.5646 171.292 90.9695 170.197 92.6534C169.376 93.918 168.802 95.3045 168.491 96.7737C168.314 97.6061 168.225 98.4603 168.225 99.313Z" fill="white"/>
<path d="M181.537 83.2634C181.537 82.3591 180.803 81.6262 179.897 81.6262H127.167C126.261 81.6262 125.527 82.3591 125.527 83.2634C125.527 84.1676 126.261 84.9005 127.167 84.9005H179.897C180.803 84.9005 181.537 84.1676 181.537 83.2634Z" fill="#FECC09"/>
<path d="M127.167 72.5089H156.156C157.062 72.5089 157.796 71.776 157.796 70.8718C157.796 69.9675 157.062 69.2346 156.156 69.2346H127.167C126.261 69.2346 125.527 69.9675 125.527 70.8718C125.527 71.776 126.261 72.5089 127.167 72.5089Z" fill="#240D42"/>
<path d="M127.167 60.1171H156.156C157.062 60.1171 157.796 59.3842 157.796 58.4799C157.796 57.5757 157.062 56.8428 156.156 56.8428H127.167C126.261 56.8428 125.527 57.5757 125.527 58.4799C125.527 59.3842 126.261 60.1171 127.167 60.1171Z" fill="#FECC09"/>
<path d="M199.94 62.3157V89.5539H194.149V66.4035H181.703C175.658 66.4035 170.74 61.4941 170.74 55.4596V43.0343H117.102C114.793 43.0343 112.915 44.9092 112.915 47.2149V145.785C112.915 148.091 114.793 149.966 117.102 149.966H189.962C192.27 149.966 194.149 148.091 194.149 145.785V142.082H199.94V145.785C199.94 151.279 195.464 155.747 189.962 155.747H117.102C111.6 155.747 107.124 151.279 107.124 145.785V47.2149C107.124 41.7216 111.6 37.2532 117.102 37.2532H174.835L199.94 62.3157Z" fill="#240D42"/>
<path d="M127.167 134.667H170.184V131.392H127.167C126.261 131.392 125.527 132.125 125.527 133.029C125.527 133.934 126.261 134.666 127.167 134.666V134.667Z" fill="#FECC09"/>
<path d="M127.167 119.001C126.261 119.001 125.527 119.734 125.527 120.638C125.527 121.542 126.261 122.275 127.167 122.275H170.338C170.514 121.129 170.837 120.031 171.288 119H127.167V119.001Z" fill="#240D42"/>
<path d="M224.487 97.6787C223.879 93.6159 221.04 90.2712 217.258 88.9314C216.106 88.523 214.867 88.3008 213.577 88.3008H180.511C176.76 88.3008 173.299 90.1831 171.25 93.3355C171.105 93.559 170.969 93.7859 170.842 94.0176C170.32 94.9625 169.943 95.9738 169.719 97.0331C169.701 97.1192 169.684 97.2052 169.667 97.2919C169.543 97.957 169.48 98.6357 169.48 99.3131V132.322C169.48 133.042 169.551 133.763 169.691 134.467C169.709 134.56 169.729 134.651 169.75 134.742C169.845 135.167 169.966 135.584 170.113 135.993C170.789 137.893 171.99 139.597 173.576 140.88C175.102 142.115 176.938 142.918 178.867 143.211C179.409 143.293 179.959 143.335 180.511 143.335H213.577C219.66 143.335 224.608 138.395 224.608 132.322V99.3131C224.608 98.7577 224.567 98.2117 224.487 97.6787ZM223.353 132.322C223.353 132.414 223.351 132.506 223.349 132.597C223.347 132.669 223.344 132.742 223.341 132.815C223.336 132.897 223.331 132.978 223.325 133.059C223.323 133.093 223.32 133.128 223.317 133.163C223.299 133.371 223.275 133.577 223.244 133.781C223.239 133.812 223.234 133.843 223.229 133.874C223.227 133.892 223.224 133.91 223.22 133.927C223.209 133.995 223.197 134.063 223.184 134.131C223.17 134.211 223.153 134.291 223.136 134.369C223.13 134.402 223.122 134.436 223.115 134.468C223.096 134.551 223.076 134.635 223.055 134.717C223.045 134.755 223.035 134.793 223.025 134.831C223.005 134.908 222.984 134.984 222.961 135.059C222.95 135.097 222.94 135.134 222.927 135.172C222.916 135.209 222.904 135.247 222.892 135.284C222.881 135.322 222.868 135.36 222.855 135.396C222.844 135.433 222.831 135.47 222.818 135.507C222.805 135.544 222.792 135.582 222.779 135.618C222.752 135.691 222.725 135.765 222.697 135.838C222.669 135.91 222.64 135.983 222.609 136.054C222.58 136.126 222.549 136.198 222.517 136.269C222.486 136.34 222.453 136.41 222.42 136.481C222.387 136.551 222.353 136.621 222.317 136.69C222.283 136.759 222.247 136.827 222.211 136.896C222.18 136.955 222.147 137.015 222.114 137.073C222.108 137.083 222.103 137.094 222.097 137.103C222.064 137.162 222.03 137.22 221.996 137.278C221.991 137.287 221.985 137.297 221.979 137.306C221.945 137.364 221.91 137.421 221.874 137.479C221.869 137.487 221.864 137.495 221.859 137.501C221.822 137.56 221.785 137.619 221.746 137.677C221.743 137.681 221.74 137.686 221.737 137.691C221.697 137.752 221.656 137.812 221.614 137.872C221.608 137.881 221.602 137.891 221.595 137.9C221.556 137.954 221.517 138.009 221.478 138.063C221.475 138.068 221.472 138.072 221.469 138.075C221.426 138.135 221.382 138.193 221.337 138.251C221.337 138.252 221.336 138.253 221.334 138.254C221.287 138.315 221.24 138.376 221.192 138.435H221.191C221.143 138.496 221.094 138.555 221.044 138.613C221.044 138.614 221.043 138.616 221.042 138.616C220.995 138.672 220.947 138.727 220.899 138.782C220.844 138.844 220.787 138.906 220.73 138.967C220.681 139.02 220.631 139.073 220.58 139.125C220.576 139.129 220.572 139.132 220.569 139.136C220.517 139.189 220.464 139.242 220.411 139.294C220.409 139.296 220.405 139.299 220.403 139.302C220.348 139.355 220.293 139.407 220.238 139.458C220.236 139.46 220.234 139.462 220.233 139.464C220.177 139.516 220.12 139.568 220.062 139.619L220.059 139.621C220 139.674 219.941 139.724 219.882 139.775C219.822 139.825 219.761 139.875 219.7 139.924C219.699 139.925 219.698 139.926 219.697 139.927C219.639 139.973 219.581 140.019 219.523 140.064C219.512 140.072 219.502 140.08 219.491 140.087C219.437 140.129 219.383 140.169 219.327 140.21C219.321 140.215 219.315 140.219 219.308 140.224C219.246 140.269 219.184 140.313 219.122 140.356C219.069 140.392 219.015 140.428 218.961 140.463C218.955 140.469 218.948 140.473 218.94 140.478C218.922 140.49 218.904 140.502 218.885 140.513C218.838 140.545 218.79 140.575 218.742 140.605C218.729 140.614 218.715 140.622 218.7 140.631C218.649 140.662 218.598 140.694 218.546 140.724C218.525 140.736 218.505 140.748 218.484 140.761C218.435 140.789 218.385 140.817 218.336 140.845C218.316 140.857 218.295 140.868 218.273 140.879C218.216 140.911 218.159 140.942 218.1 140.972C218.075 140.986 218.05 140.999 218.023 141.012C217.976 141.036 217.929 141.06 217.881 141.084C217.88 141.084 217.878 141.085 217.877 141.086C217.82 141.114 217.762 141.141 217.704 141.168C217.701 141.17 217.699 141.17 217.697 141.172C217.668 141.185 217.639 141.198 217.611 141.211C217.531 141.248 217.451 141.283 217.37 141.317C217.336 141.331 217.303 141.345 217.269 141.359C217.237 141.372 217.206 141.385 217.174 141.397C217.151 141.406 217.127 141.416 217.104 141.424C217.071 141.437 217.039 141.45 217.006 141.462C216.945 141.485 216.884 141.507 216.822 141.529C216.788 141.541 216.754 141.552 216.719 141.565C216.678 141.578 216.637 141.592 216.595 141.605C216.557 141.618 216.519 141.63 216.481 141.642C216.443 141.654 216.404 141.666 216.366 141.677C216.289 141.7 216.211 141.722 216.133 141.743C216.091 141.755 216.047 141.766 216.003 141.777C215.969 141.786 215.934 141.795 215.899 141.803C215.861 141.813 215.821 141.822 215.782 141.831C215.428 141.913 215.066 141.976 214.698 142.018C214.657 142.023 214.616 142.027 214.575 142.031C214.449 142.044 214.323 142.054 214.196 142.063C214.118 142.067 214.04 142.071 213.961 142.074C213.833 142.079 213.706 142.082 213.577 142.082H180.511C180.37 142.082 180.23 142.079 180.091 142.073C180 142.069 179.91 142.064 179.821 142.057C179.763 142.053 179.705 142.049 179.648 142.044C179.577 142.037 179.506 142.031 179.435 142.023C179.377 142.016 179.318 142.01 179.259 142.002C179.224 141.998 179.189 141.993 179.154 141.987C179.107 141.981 179.061 141.974 179.014 141.967C178.956 141.958 178.898 141.949 178.841 141.939C178.799 141.932 178.756 141.924 178.714 141.916C178.685 141.911 178.655 141.905 178.626 141.899C178.565 141.887 178.504 141.875 178.443 141.861C178.397 141.852 178.352 141.842 178.307 141.831C178.274 141.823 178.24 141.815 178.206 141.807C178.196 141.805 178.185 141.802 178.175 141.8C178.115 141.785 178.054 141.77 177.994 141.754C177.986 141.752 177.978 141.749 177.969 141.746C177.919 141.733 177.87 141.72 177.82 141.706C177.797 141.699 177.774 141.692 177.752 141.685C177.698 141.67 177.646 141.654 177.593 141.637C177.59 141.637 177.586 141.635 177.581 141.634C177.53 141.618 177.478 141.601 177.427 141.584C177.399 141.575 177.371 141.565 177.344 141.555C177.309 141.544 177.273 141.531 177.237 141.518C177.211 141.509 177.184 141.5 177.157 141.489C177.126 141.478 177.094 141.466 177.063 141.454C177.022 141.439 176.981 141.423 176.94 141.407C176.925 141.401 176.908 141.395 176.893 141.388C176.843 141.369 176.794 141.349 176.746 141.328C176.736 141.324 176.727 141.32 176.717 141.316C176.671 141.297 176.625 141.277 176.579 141.256C176.523 141.232 176.466 141.206 176.41 141.18C176.377 141.165 176.345 141.15 176.313 141.135C176.279 141.119 176.246 141.103 176.212 141.086C176.191 141.076 176.17 141.065 176.148 141.054C176.11 141.035 176.071 141.015 176.033 140.996C176.011 140.985 175.99 140.973 175.969 140.962C175.933 140.944 175.897 140.925 175.861 140.904C175.81 140.877 175.759 140.849 175.708 140.82C175.665 140.795 175.622 140.771 175.579 140.745C175.547 140.727 175.515 140.709 175.484 140.689C175.433 140.658 175.382 140.628 175.332 140.596C175.283 140.566 175.235 140.534 175.186 140.503C175.144 140.476 175.103 140.448 175.062 140.42C174.987 140.371 174.914 140.319 174.84 140.267C174.787 140.229 174.734 140.19 174.682 140.151C174.629 140.112 174.576 140.072 174.525 140.033C174.297 139.856 174.076 139.668 173.865 139.472C173.823 139.433 173.78 139.393 173.739 139.354L173.721 139.336C173.675 139.292 173.631 139.248 173.586 139.203C173.526 139.143 173.466 139.082 173.407 139.019C173.373 138.983 173.34 138.947 173.307 138.912C173.295 138.898 173.282 138.884 173.27 138.87C173.233 138.83 173.197 138.79 173.162 138.75C173.159 138.747 173.156 138.744 173.154 138.739C173.11 138.691 173.068 138.642 173.027 138.592C173.022 138.587 173.017 138.581 173.012 138.575C172.972 138.527 172.932 138.479 172.894 138.431C172.89 138.427 172.886 138.422 172.882 138.416C172.848 138.374 172.814 138.332 172.781 138.288C172.761 138.263 172.742 138.238 172.723 138.212C172.7 138.183 172.678 138.154 172.657 138.125C172.642 138.105 172.628 138.086 172.614 138.066C172.579 138.019 172.546 137.973 172.513 137.926C172.472 137.869 172.433 137.812 172.394 137.754C172.358 137.7 172.322 137.646 172.286 137.591C172.281 137.582 172.275 137.573 172.269 137.564C172.237 137.514 172.205 137.463 172.174 137.413C172.17 137.406 172.166 137.4 172.162 137.393C172.131 137.343 172.101 137.293 172.073 137.243C172.063 137.228 172.055 137.213 172.047 137.199C172.025 137.162 172.003 137.125 171.983 137.087C171.964 137.054 171.946 137.022 171.929 136.99C171.919 136.972 171.909 136.954 171.9 136.936C171.877 136.895 171.855 136.854 171.834 136.812C171.82 136.785 171.806 136.758 171.792 136.731C171.776 136.699 171.759 136.667 171.744 136.635C171.727 136.6 171.71 136.566 171.693 136.531C171.681 136.506 171.668 136.48 171.657 136.454C171.64 136.422 171.626 136.388 171.611 136.355C171.593 136.317 171.576 136.279 171.559 136.241C171.555 136.231 171.55 136.22 171.546 136.21C171.524 136.161 171.503 136.111 171.482 136.061C171.472 136.036 171.462 136.012 171.453 135.987C171.435 135.946 171.418 135.904 171.402 135.862C171.398 135.852 171.394 135.842 171.39 135.832C171.368 135.775 171.346 135.718 171.326 135.661C171.306 135.607 171.286 135.552 171.267 135.497C171.246 135.436 171.225 135.374 171.206 135.313C171.201 135.299 171.197 135.284 171.192 135.27C171.152 135.145 171.115 135.02 171.081 134.893C171.042 134.753 171.007 134.61 170.974 134.467C170.818 133.777 170.735 133.059 170.735 132.322V99.3131C170.735 98.6202 170.809 97.9442 170.947 97.2919C171.197 96.1079 171.664 95.0018 172.304 94.0176C174.047 91.3333 177.075 89.5539 180.511 89.5539H213.577C213.706 89.5539 213.833 89.5566 213.961 89.5613C214.04 89.564 214.118 89.5681 214.196 89.5728C214.323 89.581 214.449 89.5918 214.575 89.6047C214.599 89.6067 214.623 89.6094 214.647 89.6121C214.671 89.6148 214.694 89.6169 214.717 89.6203C214.886 89.6392 215.053 89.6636 215.219 89.6921C215.34 89.7124 215.46 89.7347 215.578 89.7598C215.617 89.7679 215.656 89.776 215.694 89.7842C215.777 89.8025 215.859 89.8221 215.939 89.8424C215.979 89.8519 216.019 89.8621 216.059 89.8729C216.266 89.9271 216.471 89.9881 216.673 90.0558C216.702 90.0653 216.732 90.0754 216.761 90.0856C216.843 90.1134 216.925 90.1432 217.006 90.1736C217.039 90.1858 217.071 90.198 217.104 90.2109C217.141 90.2251 217.179 90.24 217.216 90.2556C217.235 90.2631 217.255 90.2705 217.274 90.2786C217.306 90.2915 217.338 90.3051 217.37 90.3186C217.451 90.3525 217.531 90.3877 217.611 90.4243C217.639 90.4371 217.668 90.45 217.697 90.4636C217.699 90.4649 217.701 90.4656 217.704 90.4669C217.762 90.494 217.82 90.5211 217.877 90.5496C217.878 90.5503 217.88 90.5509 217.881 90.5516C217.929 90.5753 217.976 90.599 218.023 90.6234C218.05 90.6363 218.075 90.6498 218.1 90.6634C218.159 90.6939 218.216 90.7243 218.273 90.7562C218.295 90.767 218.316 90.7785 218.336 90.7907C218.385 90.8185 218.435 90.8463 218.484 90.8754C218.505 90.8869 218.525 90.8991 218.546 90.9113C218.598 90.9418 218.649 90.9729 218.7 91.0048C218.715 91.0129 218.729 91.0217 218.742 91.0305C218.79 91.0603 218.838 91.0908 218.885 91.1219C218.904 91.1334 218.922 91.1456 218.94 91.1578C218.952 91.1653 218.964 91.1727 218.974 91.1802C219.013 91.2059 219.052 91.2317 219.09 91.2574C219.107 91.2689 219.124 91.2811 219.141 91.2926C219.196 91.3306 219.251 91.3698 219.304 91.4091C219.312 91.4139 219.32 91.42 219.327 91.4254C219.383 91.466 219.437 91.5067 219.491 91.548C219.504 91.5568 219.516 91.5656 219.527 91.5751C219.571 91.6083 219.614 91.6421 219.656 91.676C219.671 91.6875 219.686 91.6997 219.7 91.7112C219.715 91.7227 219.729 91.7343 219.743 91.7458C219.79 91.7837 219.836 91.8216 219.882 91.8602C219.933 91.9036 219.984 91.9476 220.034 91.9916C220.109 92.0574 220.182 92.1237 220.255 92.1921C220.304 92.2389 220.354 92.2856 220.403 92.333C220.405 92.3364 220.409 92.3391 220.411 92.3418C220.464 92.3933 220.517 92.4461 220.569 92.499C220.572 92.503 220.576 92.5064 220.58 92.5105C220.612 92.543 220.643 92.5762 220.675 92.6094C220.802 92.7421 220.924 92.879 221.042 93.0192C221.101 93.0883 221.158 93.158 221.215 93.2285C221.244 93.2644 221.272 93.2996 221.3 93.3362C221.34 93.3877 221.38 93.4391 221.418 93.492C221.458 93.5441 221.496 93.597 221.534 93.6505C221.576 93.708 221.617 93.7663 221.656 93.8252C221.687 93.8693 221.717 93.9133 221.746 93.958C221.75 93.9634 221.754 93.9695 221.757 93.9749C221.794 94.0298 221.829 94.0846 221.863 94.1402C221.899 94.1957 221.933 94.252 221.967 94.3082C221.997 94.3583 222.026 94.4077 222.055 94.4585C222.06 94.466 222.064 94.4734 222.068 94.4809C222.101 94.5364 222.132 94.5933 222.163 94.6496C222.194 94.7058 222.224 94.762 222.253 94.8182C222.289 94.886 222.323 94.9544 222.357 95.0228C222.382 95.0736 222.407 95.1251 222.431 95.1772C222.433 95.182 222.436 95.1874 222.438 95.1921C222.464 95.2477 222.49 95.3032 222.514 95.3594C222.57 95.484 222.623 95.61 222.674 95.7374C222.695 95.7916 222.716 95.8464 222.737 95.9013C222.762 95.9677 222.786 96.0341 222.809 96.1011C222.827 96.1526 222.845 96.2041 222.862 96.2562C222.904 96.3842 222.944 96.5136 222.981 96.6437C222.989 96.6701 222.996 96.6965 223.003 96.7229C223.018 96.7737 223.031 96.8252 223.045 96.876C223.059 96.9322 223.073 96.9884 223.086 97.0453C223.092 97.067 223.097 97.0894 223.102 97.111C223.114 97.1612 223.125 97.2113 223.136 97.2621C223.15 97.3278 223.163 97.3942 223.176 97.4612C223.176 97.4633 223.176 97.4653 223.178 97.4673C223.189 97.5269 223.2 97.5872 223.21 97.6475C223.225 97.7274 223.237 97.8074 223.249 97.8873C223.258 97.9469 223.266 98.0072 223.273 98.0668C223.273 98.0681 223.273 98.0695 223.273 98.0708C223.28 98.123 223.286 98.1752 223.292 98.2273C223.295 98.2564 223.298 98.2862 223.301 98.316C223.319 98.4861 223.332 98.6581 223.34 98.8308C223.342 98.8654 223.343 98.9006 223.345 98.9358C223.347 98.9771 223.348 99.0191 223.349 99.0611C223.349 99.0875 223.35 99.1146 223.351 99.1417C223.351 99.1986 223.352 99.2555 223.352 99.3124V132.322L223.353 132.322Z" fill="white"/>
<path d="M196.879 86.1069C180.203 86.1069 166.684 99.6244 166.684 116.302C166.684 132.98 180.203 146.498 196.879 146.498C213.557 146.498 227.077 132.98 227.077 116.302C227.077 99.6244 213.557 86.1069 196.879 86.1069ZM215.542 109.668L195.092 130.118C194.367 130.843 193.385 131.252 192.355 131.252C191.326 131.252 190.344 130.843 189.616 130.118L178.213 118.712C176.701 117.2 176.701 114.748 178.213 113.236C179.727 111.724 182.179 111.724 183.689 113.238L192.353 121.904L210.065 104.192C211.578 102.68 214.027 102.68 215.537 104.192C217.056 105.702 217.056 108.156 215.542 109.668Z" fill="#FECC09"/>
</g>
<path d="M23.9343 116.104L18.5963 115.511C18.0838 115.458 17.6711 115.039 17.6246 114.52L17.0122 107.711C16.9989 107.524 16.8392 107.385 16.6528 107.385C16.4664 107.385 16.3067 107.524 16.2934 107.711L15.6811 114.526C15.6345 115.039 15.2285 115.458 14.7093 115.511L9.37137 116.104C9.19166 116.124 9.05189 116.277 9.05189 116.463C9.05189 116.65 9.19166 116.803 9.37137 116.823L14.7093 117.415C15.2218 117.468 15.6345 117.888 15.6811 118.4L16.2934 125.209C16.3067 125.395 16.4664 125.535 16.6528 125.535C16.8392 125.535 16.9989 125.395 17.0122 125.209L17.6246 118.393C17.6711 117.881 18.0772 117.462 18.5963 117.408L23.9343 116.816C24.114 116.796 24.2537 116.643 24.2537 116.457C24.2537 116.27 24.114 116.117 23.9343 116.097V116.104ZM18.5164 116.696C17.6645 116.789 16.9856 117.482 16.9057 118.34L16.6528 121.162L16.3999 118.34C16.32 117.482 15.6478 116.789 14.7892 116.696L12.6993 116.463L14.7892 116.23C15.6411 116.137 16.32 115.445 16.3999 114.586L16.6528 111.764L16.9057 114.586C16.9856 115.445 17.6578 116.137 18.5164 116.23L20.6064 116.463L18.5164 116.696ZM258.864 30.4237L252.355 29.7048C251.662 29.6316 251.11 29.0659 251.05 28.3737L250.305 20.0672C250.291 19.9142 250.158 19.7943 250.005 19.7943C249.852 19.7943 249.719 19.9142 249.706 20.0672L248.96 28.3737C248.9 29.0659 248.348 29.625 247.656 29.7048L241.146 30.4237C240.993 30.4436 240.88 30.5701 240.88 30.7232C240.88 30.8763 240.993 31.0027 241.146 31.0227L247.656 31.7415C248.348 31.8214 248.9 32.3805 248.96 33.0727L249.706 41.3791C249.719 41.5322 249.852 41.652 250.005 41.652C250.158 41.652 250.291 41.5322 250.305 41.3791L251.05 33.0727C251.11 32.3805 251.662 31.8214 252.355 31.7415L258.864 31.0227C259.017 31.0027 259.13 30.8763 259.13 30.7232C259.13 30.5701 259.017 30.4436 258.864 30.4237ZM252.288 31.1425C251.31 31.249 250.538 32.041 250.451 33.0128L250.005 38.0046L249.553 33.0128C249.466 32.0344 248.694 31.249 247.716 31.1425L243.902 30.7232L247.716 30.3039C248.694 30.1974 249.466 29.4053 249.553 28.4269L250.005 23.4351L250.451 28.4269C250.538 29.4053 251.31 30.1907 252.288 30.3039L256.102 30.7232L252.288 31.1425ZM12.3332 52.0018L15.7343 52.3811C16.0604 52.4144 16.32 52.6807 16.3533 53.0134L16.746 57.3597C16.7593 57.4795 16.8591 57.5727 16.9723 57.5727C17.0854 57.5727 17.1919 57.4795 17.1986 57.3597L17.5913 53.0134C17.6179 52.6873 17.8775 52.4211 18.2103 52.3811L21.618 52.0018C21.7378 51.9884 21.8244 51.8886 21.8244 51.7755C21.8244 51.6623 21.7378 51.5625 21.618 51.5492L18.2103 51.1698C17.8841 51.1365 17.6246 50.8703 17.5913 50.5375L17.1986 46.1912C17.1853 46.0714 17.0854 45.9783 16.9723 45.9783C16.8591 45.9783 16.7526 46.0714 16.746 46.1912L16.3533 50.5375C16.32 50.8636 16.0671 51.1298 15.7343 51.1698L12.3332 51.5492C12.2134 51.5625 12.1269 51.6623 12.1269 51.7755C12.1269 51.8886 12.2134 51.9884 12.3332 52.0018ZM15.7876 51.6224C16.3333 51.5625 16.766 51.1232 16.8125 50.5774L16.9723 48.7804L17.132 50.5774C17.1786 51.1232 17.6112 51.5625 18.157 51.6224L19.4882 51.7688L18.157 51.9152C17.6112 51.9751 17.1786 52.4144 17.132 52.9602L16.9723 54.7573L16.8125 52.9602C16.766 52.4144 16.3333 51.9751 15.7876 51.9152L14.4564 51.7688L15.7876 51.6224ZM99.837 8.35968L103.238 8.73906C103.564 8.77234 103.824 9.03858 103.857 9.37137L104.25 13.7176C104.263 13.8374 104.363 13.9306 104.476 13.9306C104.589 13.9306 104.696 13.8374 104.702 13.7176L105.095 9.37137C105.122 9.04523 105.381 8.779 105.714 8.73906L109.122 8.35968C109.242 8.34637 109.328 8.24654 109.328 8.13339C109.328 8.02024 109.242 7.9204 109.122 7.90709L105.714 7.52771C105.388 7.49443 105.128 7.2282 105.095 6.89541L104.702 2.54917C104.689 2.42937 104.589 2.33618 104.476 2.33618C104.363 2.33618 104.256 2.42937 104.25 2.54917L103.857 6.89541C103.824 7.22154 103.571 7.48777 103.238 7.52771L99.837 7.90709C99.7172 7.9204 99.6307 8.02024 99.6307 8.13339C99.6307 8.24654 99.7172 8.34637 99.837 8.35968ZM103.291 7.9803C103.837 7.9204 104.27 7.48112 104.316 6.93534L104.476 5.13828L104.636 6.93534C104.682 7.48112 105.115 7.9204 105.661 7.9803L106.992 8.12673L105.661 8.27316C105.115 8.33306 104.682 8.77234 104.636 9.31812L104.476 11.1152L104.316 9.31812C104.27 8.77234 103.837 8.33306 103.291 8.27316L101.96 8.12673L103.291 7.9803ZM30.2905 62.3648L33.6917 62.7442C34.0178 62.7775 34.2774 63.0437 34.3106 63.3765L34.7033 67.7228C34.7166 67.8426 34.8165 67.9357 34.9296 67.9357C35.0428 67.9357 35.1493 67.8426 35.1559 67.7228L35.5486 63.3765C35.5752 63.0504 35.8348 62.7842 36.1676 62.7442L39.5754 62.3648C39.6952 62.3515 39.7817 62.2517 39.7817 62.1385C39.7817 62.0254 39.6952 61.9256 39.5754 61.9122L36.1676 61.5329C35.8415 61.4996 35.5819 61.2334 35.5486 60.9006L35.1559 56.5543C35.1426 56.4345 35.0428 56.3413 34.9296 56.3413C34.8165 56.3413 34.71 56.4345 34.7033 56.5543L34.3106 60.9006C34.2774 61.2267 34.0244 61.4929 33.6917 61.5329L30.2905 61.9122C30.1707 61.9256 30.0842 62.0254 30.0842 62.1385C30.0842 62.2517 30.1707 62.3515 30.2905 62.3648ZM33.7449 61.9855C34.2907 61.9256 34.7233 61.4863 34.7699 60.9405L34.9296 59.1434L35.0894 60.9405C35.136 61.4863 35.5686 61.9256 36.1144 61.9855L37.4455 62.1319L36.1144 62.2783C35.5686 62.3382 35.136 62.7775 35.0894 63.3233L34.9296 65.1203L34.7699 63.3233C34.7233 62.7775 34.2907 62.3382 33.7449 62.2783L32.4137 62.1319L33.7449 61.9855ZM277.647 60.235L281.048 60.6144C281.374 60.6476 281.633 60.9139 281.667 61.2467L282.059 65.5929C282.073 65.7127 282.173 65.8059 282.286 65.8059C282.399 65.8059 282.505 65.7127 282.512 65.5929L282.905 61.2467C282.931 60.9205 283.191 60.6543 283.524 60.6144L286.932 60.235C287.051 60.2217 287.138 60.1218 287.138 60.0087C287.138 59.8955 287.051 59.7957 286.932 59.7824L283.524 59.403C283.198 59.3697 282.938 59.1035 282.905 58.7707L282.512 54.4245C282.499 54.3047 282.399 54.2115 282.286 54.2115C282.173 54.2115 282.066 54.3047 282.059 54.4245L281.667 58.7707C281.633 59.0968 281.381 59.3631 281.048 59.403L277.647 59.7824C277.527 59.7957 277.44 59.8955 277.44 60.0087C277.44 60.1218 277.527 60.2217 277.647 60.235ZM281.101 59.8556C281.647 59.7957 282.079 59.3564 282.126 58.8106L282.286 57.0136L282.445 58.8106C282.492 59.3564 282.925 59.7957 283.47 59.8556L284.802 60.002L283.47 60.1485C282.925 60.2084 282.492 60.6476 282.445 61.1934L282.286 62.9905L282.126 61.1934C282.079 60.6476 281.647 60.2084 281.101 60.1485L279.77 60.002L281.101 59.8556ZM231.748 14.1436L234.431 14.4431C234.69 14.4697 234.896 14.6827 234.916 14.9423L235.223 18.3633C235.229 18.4565 235.309 18.5297 235.402 18.5297C235.495 18.5297 235.575 18.4565 235.582 18.3633L235.888 14.9423C235.908 14.6827 236.114 14.4764 236.374 14.4431L239.056 14.1436C239.15 14.1303 239.216 14.057 239.216 13.9639C239.216 13.8707 239.15 13.7908 239.056 13.7842L236.374 13.4847C236.114 13.458 235.908 13.245 235.888 12.9855L235.582 9.56438C235.575 9.4712 235.495 9.39799 235.402 9.39799C235.309 9.39799 235.229 9.4712 235.223 9.56438L234.916 12.9855C234.896 13.245 234.69 13.4514 234.431 13.4847L231.748 13.7842C231.655 13.7975 231.589 13.8707 231.589 13.9639C231.589 14.057 231.655 14.1369 231.748 14.1436ZM234.47 13.8441C234.896 13.7975 235.243 13.4514 235.276 13.0187L235.402 11.6011L235.529 13.0187C235.569 13.4514 235.908 13.7975 236.334 13.8441L237.386 13.9572L236.334 14.077C235.901 14.1236 235.562 14.4697 235.529 14.9023L235.402 16.32L235.276 14.9023C235.236 14.4697 234.896 14.1236 234.47 14.077L233.419 13.9572L234.47 13.8441ZM271.69 5.5709L274.838 5.91701C275.144 5.95028 275.384 6.19655 275.41 6.50272L275.77 10.5228C275.776 10.636 275.87 10.7158 275.983 10.7158C276.096 10.7158 276.182 10.6293 276.196 10.5228L276.555 6.50272C276.582 6.19655 276.821 5.95694 277.128 5.91701L280.276 5.5709C280.382 5.55759 280.469 5.46441 280.469 5.35792C280.469 5.25143 280.389 5.15824 280.276 5.14493L277.128 4.79883C276.821 4.76555 276.582 4.51929 276.555 4.21312L276.196 0.193018C276.182 0.0798696 276.096 0 275.983 0C275.87 0 275.783 0.0865254 275.77 0.193018L275.41 4.21312C275.384 4.51929 275.144 4.76555 274.838 4.79883L271.69 5.14493C271.583 5.15824 271.497 5.25143 271.497 5.35792C271.497 5.46441 271.577 5.55759 271.69 5.5709ZM274.884 5.2248C275.39 5.17156 275.79 4.7589 275.836 4.25971L275.989 2.59576L276.142 4.25971C276.189 4.76555 276.588 5.17156 277.094 5.2248L278.326 5.35792L277.094 5.49769C276.588 5.55094 276.189 5.9636 276.142 6.46278L275.989 8.12673L275.836 6.46278C275.79 5.95694 275.39 5.55094 274.884 5.49769L273.653 5.35792L274.884 5.2248ZM305.108 132.138L302.406 131.838C302.147 131.811 301.94 131.598 301.914 131.339L301.601 127.891C301.594 127.798 301.514 127.725 301.421 127.725C301.328 127.725 301.248 127.798 301.241 127.891L300.929 131.339C300.902 131.598 300.696 131.811 300.436 131.838L297.734 132.138C297.641 132.151 297.574 132.224 297.574 132.317C297.574 132.41 297.641 132.49 297.734 132.497L300.436 132.796C300.696 132.823 300.902 133.036 300.929 133.296L301.241 136.743C301.248 136.837 301.328 136.91 301.421 136.91C301.514 136.91 301.594 136.837 301.601 136.743L301.914 133.296C301.94 133.036 302.147 132.823 302.406 132.796L305.108 132.497C305.202 132.484 305.268 132.41 305.268 132.317C305.268 132.224 305.202 132.144 305.108 132.138ZM302.366 132.437C301.934 132.484 301.594 132.836 301.554 133.269L301.428 134.693L301.301 133.269C301.261 132.836 300.922 132.484 300.489 132.437L299.431 132.317L300.489 132.197C300.922 132.151 301.268 131.798 301.301 131.366L301.428 129.941L301.554 131.366C301.594 131.798 301.934 132.151 302.366 132.197L303.425 132.317L302.366 132.437ZM9.49117 141.755L6.0834 141.376C5.75727 141.343 5.49769 141.076 5.46441 140.744L5.07172 136.397C5.05841 136.277 4.95857 136.184 4.84542 136.184C4.73227 136.184 4.62578 136.277 4.61912 136.397L4.22643 140.744C4.19315 141.07 3.94023 141.336 3.60744 141.376L0.20633 141.755C0.0865254 141.769 0 141.868 0 141.982C0 142.095 0.0865254 142.194 0.20633 142.208L3.60744 142.587C3.93358 142.62 4.19315 142.887 4.22643 143.219L4.61912 147.566C4.63244 147.686 4.72562 147.779 4.84542 147.779C4.96523 147.779 5.06506 147.686 5.07172 147.566L5.46441 143.219C5.49103 142.893 5.75061 142.627 6.0834 142.587L9.49117 142.208C9.61097 142.194 9.6975 142.095 9.6975 141.982C9.6975 141.868 9.61097 141.769 9.49117 141.755ZM6.03681 142.135C5.49103 142.194 5.05841 142.634 5.01182 143.18L4.85208 144.977L4.69234 143.18C4.64575 142.634 4.21312 142.194 3.66735 142.135L2.33619 141.988L3.66735 141.842C4.21312 141.782 4.64575 141.343 4.69234 140.797L4.85208 139L5.01182 140.797C5.05841 141.343 5.49103 141.782 6.03681 141.842L7.36797 141.988L6.03681 142.135ZM296.549 111.218L292.336 110.752C291.93 110.706 291.611 110.38 291.571 109.974L291.085 104.603C291.071 104.456 290.945 104.343 290.799 104.343C290.652 104.343 290.526 104.456 290.512 104.603L290.026 109.974C289.993 110.38 289.667 110.706 289.261 110.752L285.048 111.218C284.901 111.232 284.795 111.358 284.795 111.505C284.795 111.651 284.901 111.771 285.048 111.791L289.261 112.257C289.667 112.303 289.987 112.629 290.026 113.035L290.512 118.407C290.526 118.553 290.652 118.666 290.799 118.666C290.945 118.666 291.071 118.553 291.085 118.407L291.571 113.035C291.604 112.629 291.93 112.303 292.336 112.257L296.549 111.791C296.696 111.777 296.802 111.651 296.802 111.505C296.802 111.358 296.696 111.238 296.549 111.218ZM292.276 111.684C291.604 111.758 291.071 112.303 291.005 112.976L290.805 115.199L290.605 112.976C290.546 112.303 290.013 111.758 289.341 111.684L287.69 111.505L289.341 111.325C290.013 111.252 290.546 110.706 290.605 110.034L290.805 107.811L291.005 110.034C291.065 110.706 291.597 111.252 292.276 111.325L293.927 111.505L292.276 111.684ZM38.5038 10.2766L35.096 9.89717C34.7699 9.86389 34.5103 9.59766 34.477 9.26487L34.0843 4.91864C34.071 4.79883 33.9712 4.70565 33.8581 4.70565C33.7449 4.70565 33.6384 4.79883 33.6318 4.91864L33.2391 9.26487C33.2058 9.59101 32.9529 9.85724 32.6201 9.89717L29.219 10.2766C29.0992 10.2899 29.0126 10.3897 29.0126 10.5029C29.0126 10.616 29.0992 10.7158 29.219 10.7291L32.6201 11.1085C32.9462 11.1418 33.2058 11.408 33.2391 11.7408L33.6318 16.0871C33.6451 16.2069 33.7382 16.2934 33.8581 16.2934C33.9779 16.2934 34.0777 16.2002 34.0843 16.0871L34.477 11.7408C34.5037 11.4147 34.7632 11.1485 35.096 11.1085L38.5038 10.7291C38.6236 10.7158 38.7101 10.616 38.7101 10.5029C38.7101 10.3897 38.6236 10.2899 38.5038 10.2766ZM35.0494 10.6559C34.5037 10.7158 34.071 11.1551 34.0244 11.7009L33.8647 13.498L33.705 11.7009C33.6584 11.1551 33.2257 10.7158 32.68 10.6559L31.3488 10.5095L32.68 10.3631C33.2257 10.3032 33.6584 9.86389 33.705 9.31812L33.8647 7.52105L34.0244 9.31812C34.071 9.86389 34.5037 10.3032 35.0494 10.3631L36.3806 10.5095L35.0494 10.6559ZM272.921 75.8894L265.952 75.1173C265.214 75.0375 264.621 74.4385 264.555 73.693L263.756 64.8009C263.743 64.6345 263.603 64.508 263.437 64.508C263.27 64.508 263.13 64.6345 263.117 64.8009L262.318 73.693C262.252 74.4385 261.666 75.0375 260.921 75.1173L253.952 75.8894C253.792 75.9094 253.666 76.0425 253.666 76.2089C253.666 76.3753 253.786 76.5084 253.952 76.5284L260.921 77.3005C261.659 77.3803 262.252 77.9793 262.318 78.7248L263.117 87.6169C263.13 87.7833 263.27 87.9098 263.437 87.9098C263.603 87.9098 263.743 87.7833 263.756 87.6169L264.555 78.7248C264.621 77.9793 265.207 77.3803 265.952 77.3005L272.921 76.5284C273.081 76.5084 273.207 76.3753 273.207 76.2089C273.207 76.0425 273.087 75.9094 272.921 75.8894ZM265.879 76.6615C264.834 76.7746 264.009 77.6199 263.916 78.6649L263.437 84.0095L262.957 78.6649C262.864 77.6199 262.039 76.7746 260.994 76.6615L256.914 76.2089L260.994 75.7563C262.039 75.6432 262.864 74.7979 262.957 73.7529L263.437 68.4083L263.916 73.7529C264.009 74.7979 264.834 75.6432 265.879 75.7563L269.959 76.2089L265.879 76.6615ZM92.9882 22.7362L86.0528 21.9708C85.3872 21.8976 84.8548 21.3585 84.7949 20.6862L83.9962 11.8407C83.9762 11.6011 83.7699 11.4147 83.5303 11.4147C83.2907 11.4147 83.0843 11.6011 83.0644 11.8407L82.2657 20.6862C82.2058 21.3518 81.6733 21.8976 81.0077 21.9708L74.0724 22.7362C73.8328 22.7628 73.6531 22.9625 73.6531 23.2021C73.6531 23.4417 73.8328 23.6414 74.0724 23.668L81.0077 24.4334C81.6733 24.5067 82.2058 25.0458 82.2657 25.718L83.0644 34.5636C83.0843 34.8098 83.2907 34.9895 83.5303 34.9895C83.7699 34.9895 83.9762 34.8032 83.9962 34.5636L84.7949 25.718C84.8548 25.0524 85.3872 24.5067 86.0528 24.4334L92.9882 23.668C93.2278 23.6414 93.4075 23.4417 93.4075 23.2021C93.4075 22.9625 93.2278 22.7628 92.9882 22.7362ZM85.953 23.5016C84.8415 23.6214 83.9629 24.52 83.8631 25.6315L83.5303 29.2988L83.1975 25.6381C83.0976 24.5266 82.2191 23.6281 81.1076 23.5083L78.392 23.2088L81.1076 22.9093C82.2191 22.7895 83.0976 21.8909 83.1975 20.7794L83.5303 17.1121L83.8631 20.7727C83.9629 21.8909 84.8415 22.7828 85.953 22.9026L88.6686 23.2021L85.953 23.5016Z" fill="#260D46"/>
<defs>
<clipPath id="clip0_193_502">
<rect width="163" height="121" fill="white" transform="translate(72 36)"/>
</clipPath>
</defs>
</svg>
