<svg width="16" height="16" viewBox="0 0 16 16" fill="none" xmlns="http://www.w3.org/2000/svg">
<path opacity="0.5" d="M4.16666 12.6667C4.16666 12.8759 4.29694 13.063 4.49318 13.1356C4.68942 13.2082 4.91011 13.151 5.04629 12.9921L9.04629 8.32542C9.20678 8.13817 9.20678 7.86187 9.04629 7.67463L5.04629 3.00796C4.91012 2.84909 4.68943 2.79182 4.49318 2.86441C4.29694 2.93701 4.16666 3.12412 4.16666 3.33336L4.16666 12.6667Z" fill="#FECC09"/>
<path fill-rule="evenodd" clip-rule="evenodd" d="M7.00793 13.0463C6.79826 12.8666 6.77398 12.5509 6.95369 12.3413L10.6748 8.00001L6.95369 3.65874C6.77398 3.44907 6.79826 3.13342 7.00793 2.95371C7.21759 2.774 7.53324 2.79828 7.71295 3.00795L11.713 7.67461C11.8734 7.86186 11.8734 8.13816 11.713 8.3254L7.71295 12.9921C7.53324 13.2017 7.21759 13.226 7.00793 13.0463Z" fill="#FECC09"/>
</svg>
