<svg width="16" height="20" viewBox="0 0 16 20" fill="none" xmlns="http://www.w3.org/2000/svg">
<path fill-rule="evenodd" clip-rule="evenodd" d="M13.9858 2.42367C10.0077 1.97906 5.99233 1.97906 2.01416 2.42367C1.74499 2.45376 1.61537 2.76941 1.78571 2.97998L5.30273 7.32753C6.56263 8.88494 7.24999 10.8275 7.24999 12.8307V15.7199L8.74999 16.8199V12.8307C8.74999 10.8275 9.43735 8.88494 10.6972 7.32753L14.2143 2.97998C14.3846 2.76941 14.255 2.45376 13.9858 2.42367ZM1.84755 0.932956C5.93645 0.475961 10.0635 0.475961 14.1524 0.932956C15.5994 1.09467 16.2961 2.79146 15.3805 3.92339L11.8634 8.27093C10.8195 9.56136 10.25 11.1709 10.25 12.8307V18.3C10.25 18.5826 10.0911 18.8413 9.839 18.969C9.58689 19.0968 9.28438 19.0719 9.05647 18.9048L6.05647 16.7048C5.86381 16.5635 5.74999 16.3389 5.74999 16.1V12.8307C5.74999 11.1709 5.18046 9.56137 4.13655 8.27094L0.619528 3.92339C-0.296161 2.79146 0.400623 1.09467 1.84755 0.932956Z" fill="#272727"/>
</svg>
