<svg width="16" height="20" viewBox="0 0 16 20" fill="none" xmlns="http://www.w3.org/2000/svg">
<path d="M6.5 14C6.5 13.1716 7.17157 12.5 8 12.5C8.82842 12.5 9.5 13.1716 9.5 14C9.5 14.8284 8.82842 15.5 8 15.5C7.17157 15.5 6.5 14.8284 6.5 14Z" fill="#272727"/>
<path fill-rule="evenodd" clip-rule="evenodd" d="M5.81049 2.00497C6.04285 1.91246 6.28525 1.8475 6.53273 1.81144C8.006 1.59678 9.43266 2.42661 9.97445 3.81335L10.0495 4.00537C10.1424 4.2433 10.2087 4.4908 10.2472 4.74334L10.4638 6.16565L11.9467 5.9398L11.7301 4.51749C11.675 4.15544 11.5799 3.80062 11.4466 3.45951L11.3716 3.26749C10.5758 1.23066 8.48037 0.0118162 6.31645 0.327118C5.95295 0.380083 5.59691 0.475483 5.25563 0.611365C3.22397 1.42026 2.01867 3.52354 2.34793 5.68538L2.37897 5.88919C2.43411 6.25123 2.52918 6.60605 2.66245 6.94716L3.3166 8.62149L2.93512 8.65194C1.85239 8.73838 0.968288 9.55228 0.792773 10.6242C0.426701 12.8598 0.426701 15.1401 0.792773 17.3758C0.968288 18.4477 1.85239 19.2616 2.93512 19.348L4.43125 19.4675C6.80663 19.6571 9.19336 19.6571 11.5687 19.4675L13.0649 19.348C14.1476 19.2616 15.0317 18.4477 15.2072 17.3758C15.5733 15.1401 15.5733 12.8598 15.2072 10.6242C15.0317 9.55228 14.1476 8.73838 13.0649 8.65194L11.5687 8.5325C9.34262 8.35478 7.10653 8.34362 4.87916 8.499L4.0596 6.4013C3.96665 6.16337 3.90033 5.91587 3.86187 5.66334L3.83083 5.45953C3.60666 3.98768 4.42727 2.55569 5.81049 2.00497ZM11.4494 10.0277C9.15344 9.84445 6.84655 9.84445 4.55062 10.0277L3.05449 10.1472C2.65956 10.1787 2.33708 10.4756 2.27306 10.8666C1.93327 12.9417 1.93327 15.0583 2.27306 17.1334C2.33708 17.5244 2.65956 17.8213 3.05449 17.8528L4.55062 17.9722C6.84655 18.1555 9.15344 18.1555 11.4494 17.9722L12.9455 17.8528C13.3404 17.8213 13.6629 17.5244 13.7269 17.1334C14.0667 15.0583 14.0667 12.9417 13.7269 10.8666C13.6629 10.4756 13.3404 10.1787 12.9455 10.1472L11.4494 10.0277Z" fill="#272727"/>
</svg>
