<svg width="24" height="30" viewBox="0 0 24 30" fill="none" xmlns="http://www.w3.org/2000/svg">
<path fill-rule="evenodd" clip-rule="evenodd" d="M0.375 4.5C0.375 2.22183 2.22182 0.375 4.5 0.375H16.4803C17.3259 0.375 18.1197 0.78236 18.6128 1.46932L23.1325 7.76617C23.4528 8.21232 23.625 8.74767 23.625 9.29685V25.5C23.625 27.7782 21.7782 29.625 19.5 29.625H4.5C2.22182 29.625 0.375 27.7782 0.375 25.5V4.5ZM4.5 2.625C3.46447 2.625 2.625 3.46447 2.625 4.5V25.5C2.625 26.5355 3.46447 27.375 4.5 27.375H19.5C20.5355 27.375 21.375 26.5355 21.375 25.5V10.3456H16.5C15.8787 10.3456 15.375 9.84189 15.375 9.22057V2.625H4.5Z" fill="#260D46"/>
<path d="M16.6285 16.8278C16.2404 17.313 15.5324 17.3916 15.0473 17.0035L13.1251 15.4657V20.625C13.1251 21.2463 12.6214 21.75 12.0001 21.75C11.3788 21.75 10.8751 21.2463 10.8751 20.625V15.4657L8.95282 17.0035C8.46765 17.3916 7.7597 17.313 7.37156 16.8278C6.98343 16.3426 7.06209 15.6347 7.54726 15.2465L11.2933 12.2497C11.4841 12.0954 11.7265 12.0022 11.9906 12C11.9938 12 11.9969 12 12.0001 12L12.0037 12C12.2724 12.0009 12.5189 12.0959 12.7119 12.2538L16.4528 15.2465C16.938 15.6347 17.0167 16.3426 16.6285 16.8278Z" fill="#260D46"/>
</svg>
